<svg id="ezyw7nSRhPl1" xmlns="http://www.w3.org/2000/svg" xmlns:xlink="http://www.w3.org/1999/xlink" viewBox="0 0 365 364" shape-rendering="geometricPrecision" text-rendering="geometricPrecision"><g transform="matrix(.1 0 0-.1 0 364)"><path d="M1562,3614c-347-50-699-217-948-447l-62-57h-221c-121,0-221-2-221-4c0-3,40-74,89-159l90-154-77-154C92,2400,41,2221,18,1957c-19-224,10-472,83-697c42-131,165-376,246-490c77-107,232-272,331-353c540-441,1287-533,1917-237c442,207,784,588,944,1053c172,500,116,1051-156,1514l-24,42l90,155c50,86,91,158,91,161s-100,5-223,5h-223l-35,36c-81,85-275,221-418,293-167,85-372,149-561,176-129,18-391,18-518-1Zm580-253c178-39,374-117,518-208c104-66,191-137,187-153s-1003-1750-1016-1763c-6-6-1021,1737-1029,1768-3,11,98,91,188,148c146,92,346,172,519,206c140,29,149,29,351,26c140-3,208-8,282-24ZM1016,1537L1596,535h229h229l581,1003c319,551,583,1002,586,1002c9,0,71-147,98-230c117-364,102-739-45-1100-132-327-418-631-744-795-110-55-264-109-394-137-86-19-132-22-311-22s-225,3-311,22c-303,66-560,202-776,410-487,471-619,1160-343,1790c15,34,30,62,34,62c3,0,267-451,587-1003Z" fill="#0895cd"/><path d="M1313,2263c3-5,116-201,252-438c136-236,251-434,255-438c4-5,113,175,242,400c130,224,246,425,258,446l22,37h-517c-284,0-514-3-512-7Z" fill="#09487e"/></g></svg>